<?xml version="1.0" encoding="utf-8"?>
<!-- Generator: Adobe Illustrator 23.0.3, SVG Export Plug-In . SVG Version: 6.00 Build 0)  -->
<svg version="1.1" id="Layer_1" xmlns="http://www.w3.org/2000/svg" xmlns:xlink="http://www.w3.org/1999/xlink" x="0px" y="0px"
	 viewBox="0 0 1440 217" style="enable-background:new 0 0 1440 217;" xml:space="preserve">
<style type="text/css">
	.st0{opacity:0.68;}
	.st1{fill-rule:evenodd;clip-rule:evenodd;fill:#FE9603;}
	.st2{filter:url(#Adobe_OpacityMaskFilter);}
	.st3{fill-rule:evenodd;clip-rule:evenodd;fill:#FFFFFF;}
	.st4{opacity:0.4;mask:url(#b_1_);fill-rule:evenodd;clip-rule:evenodd;fill:#FE9603;enable-background:new    ;}
</style>
<g transform="translate(-285 -41)">
	<g class="st0">
		<path class="st1" d="M59.7,249.6c389.7,1.9,1376,155.3,1376.6,40c0.6-115.4,443.7-206.9,54-208.9c-183.8-0.9-433.3,0.8-665.7-12.8
			c-260.4-15.3-504.8-35.8-687-15.4C-207,91-330,247.7,59.7,249.6L59.7,249.6z"/>
	</g>
	<defs>
		<filter id="Adobe_OpacityMaskFilter" filterUnits="userSpaceOnUse" x="271.5" y="76.1" width="1297.4" height="251.7">
			<feColorMatrix  type="matrix" values="1 0 0 0 0  0 1 0 0 0  0 0 1 0 0  0 0 0 1 0"/>
		</filter>
	</defs>
	<mask maskUnits="userSpaceOnUse" x="271.5" y="76.1" width="1297.4" height="251.7" id="b_1_">
		<g class="st2">
			<path id="a_1_" class="st3" d="M474,221.4c389.7,1.9,1376.2,124.3,1376.6,33c0.5-91.2,443.5-163.2,53.8-165.1
				c-183.8-0.9-433.3,0.2-665.7-10.8c-260.4-12.3-504.8-28.8-687-12.9C207,95.7,84.2,219.5,474,221.4L474,221.4z"/>
		</g>
	</mask>
	<path class="st4" d="M380.4,260.9c389.7,1.9,898.8,124.4,899.3,33.1c0.5-91.2,537.1-167.5,147.4-169.5s-653.2-101.3-653.7-10
		C772.9,205.8-9.3,259,380.4,260.9L380.4,260.9z"/>
</g>
</svg>
