<?xml version="1.0" encoding="utf-8"?>
<!-- Generator: Adobe Illustrator 23.0.3, SVG Export Plug-In . SVG Version: 6.00 Build 0)  -->
<svg version="1.1" id="Layer_1" xmlns="http://www.w3.org/2000/svg" xmlns:xlink="http://www.w3.org/1999/xlink" x="0px" y="0px"
	 viewBox="0 0 630.2 217.8" style="enable-background:new 0 0 630.2 217.8;" xml:space="preserve">
<style type="text/css">
	.st0{opacity:0.81;}
	.st1{fill-rule:evenodd;clip-rule:evenodd;fill:#FFFFFF;}
	.st2{fill:#1C346F;}
	.st3{fill:#E0912F;}
	.st4{fill:#FFFFFF;}
	.st5{fill:#CF4044;}
	.st6{fill:#2F9C5C;}
	.st7{fill:url(#SVGID_1_);}
	.st8{fill:url(#SVGID_2_);}
	.st9{fill:url(#SVGID_3_);}
	.st10{fill:url(#SVGID_4_);}
	.st11{fill:url(#SVGID_5_);}
	.st12{fill:url(#SVGID_6_);}
	.st13{fill:url(#SVGID_7_);}
	.st14{fill:url(#SVGID_8_);}
	.st15{fill:#ECB73B;}
	.st16{fill:#2360A5;}
	.st17{fill:none;}
	.st18{fill:#00ACEC;}
	.st19{fill:#1B326C;}
</style>
<title>payment</title>
<g class="st0">
	<path class="st1" d="M546.8,109.7H95.4c-14,0-25.3-11.3-25.3-25.3c0,0,0,0,0,0V25.3C70.1,11.3,81.5,0,95.4,0c0,0,0,0,0,0h451.4
		c14,0,25.3,11.3,25.3,25.3v59.1C572.1,98.3,560.8,109.7,546.8,109.7z M567.9,25.3c0-11.6-9.5-21.1-21.1-21.1H95.4
		c-11.6,0-21.1,9.4-21.1,21.1c0,0,0,0,0,0v59.1c0,11.6,9.4,21.1,21.1,21.1h0h451.4c11.6,0,21.1-9.4,21.1-21.1V25.3z"/>
	<path class="st1" d="M326.2,77.8h-5.5l4.3-10.5l-8.5-21.4h5.8l5.3,14.6l5.3-14.6h5.8L326.2,77.8z M305.1,68.6c-2.1,0-4-0.8-5.6-2.1
		v1.6h-5.7V36.1h5.7v11.2c1.6-1.3,3.6-2,5.6-2c6,0,10,4.8,10,11.6S311,68.6,305.1,68.6L305.1,68.6z M303.9,50.2
		c-1.7,0-3.3,0.8-4.4,2v9.5c1.1,1.2,2.7,2,4.4,2c3.2,0,5.4-2.8,5.4-6.7S307.1,50.2,303.9,50.2L303.9,50.2z M270.7,66.5
		c-1.6,1.3-3.6,2.1-5.6,2.1c-5.9,0-10-4.8-10-11.6s4.1-11.6,10-11.6c2,0,4,0.7,5.6,2V36.1h5.7v31.9h-5.7V66.5z M270.7,52.2
		c-1.1-1.2-2.7-2-4.4-2c-3.2,0-5.5,2.8-5.5,6.8s2.2,6.7,5.5,6.7c1.7,0,3.3-0.8,4.4-2V52.2z M236.9,58.5c0.4,3.4,3,5.7,6.8,5.7
		c2.3-0.1,4.6-0.8,6.6-2.1v4.8c-2.4,1.1-4.9,1.7-7.6,1.7c-6.7,0-11.4-4.9-11.4-11.8c0-6.7,4.6-11.5,11-11.5c5.8,0,9.8,4.6,9.8,11.1
		c0,0.7,0,1.4-0.1,2.1L236.9,58.5z M242.1,49.7c-2.8,0-4.9,2-5.1,5.1h9.7C246.4,51.8,244.6,49.7,242.1,49.7L242.1,49.7z M222,53.2
		v14.8h-5.7V45.9h5.7v2.2c1.3-1.7,3.3-2.7,5.5-2.8c0.6,0,1.3,0.1,1.9,0.2v5.1c-0.7-0.2-1.3-0.3-2-0.3
		C225.2,50.4,223.2,51.5,222,53.2z M196.6,58.5c0.4,3.4,3,5.7,6.7,5.7c2.4-0.1,4.7-0.8,6.7-2.1v4.8c-2.4,1.1-4.9,1.7-7.6,1.7
		c-6.7,0-11.4-4.9-11.4-11.8c0-6.7,4.6-11.5,11-11.5c5.8,0,9.8,4.6,9.8,11.1c0,0.7,0,1.4-0.1,2.1L196.6,58.5z M201.8,49.7
		c-2.8,0-4.9,2-5.1,5.1h9.7C206.1,51.8,204.3,49.7,201.8,49.7z M176.8,68.1L172.2,53l-4.5,15.1h-5.1L155,45.9h5.7l4.5,15.1l4.5-15.1
		h5.1l4.5,15.1l4.5-15.1h5.7l-7.6,22.2L176.8,68.1z M142,68.6c-6.7,0-11.4-4.8-11.4-11.6s4.8-11.6,11.4-11.6s11.4,4.8,11.4,11.7
		S148.7,68.6,142,68.6z M142,50.1c-3.3,0-5.6,2.8-5.6,6.9s2.3,6.9,5.6,6.9s5.6-2.8,5.6-6.9S145.3,50.1,142,50.1z M117,57.1h-5v11
		h-5.7V37.5h10.8c6.2,0,10.7,4,10.7,9.8s-4.4,9.8-10.7,9.8L117,57.1z M116.2,42.1H112v10.4h4.3c3.3,0,5.6-2.1,5.6-5.2
		S119.6,42.1,116.2,42.1L116.2,42.1z M538.9,59.3h-23.5c0.5,5.6,4.7,7.3,9.3,7.3c4.1,0.1,8.1-0.8,11.8-2.7v9.7
		c-4.1,2.2-8.7,3.2-13.3,3.1c-11.7,0-19.8-7.3-19.8-21.8c0-12.2,6.9-21.9,18.3-21.9c11.4,0,17.3,9.7,17.3,22
		C539,56.1,538.9,58.6,538.9,59.3z M521.6,42.8c-3,0-6.3,2.3-6.3,7.7h12.4C527.7,45,524.6,42.8,521.6,42.8z M484,76.7
		c-3.1,0-6.1-1.1-8.5-3v13.6l-12,2.6V33.8h10.5l0.6,3c2.5-2.4,5.9-3.8,9.4-3.8c8.4,0,16.3,7.6,16.3,21.5
		C500.4,69.7,492.6,76.6,484,76.7L484,76.7z M481.2,43.7c-2.2-0.1-4.3,0.7-5.7,2.3l0.1,17.8c1.4,1.6,3.5,2.4,5.6,2.3
		c4.4,0,7.4-4.8,7.4-11.3C488.6,48.5,485.6,43.6,481.2,43.7L481.2,43.7z M446.2,33.8h12v42h-12V33.8z M446.2,20.4l12-2.6v9.7
		l-12,2.6V20.4z M433.4,47.3v28.5h-12v-42h10.4l0.8,3.5c2.8-5.2,8.4-4.1,10-3.5v11C441,44.3,436.2,43.6,433.4,47.3L433.4,47.3z
		 M407.7,61.1c0,7.1,7.6,4.9,9.1,4.2v9.8c-1.6,0.9-4.5,1.6-8.4,1.6c-6.7,0.2-12.2-5.1-12.4-11.7c0-0.2,0-0.4,0-0.6V25.9l11.7-2.5
		v10.4h9.1V44h-9.1L407.7,61.1z M392.8,63.1c0,8.6-6.9,13.5-16.8,13.5c-4.5,0-9-0.9-13.1-2.7V62.5c4,2.2,9.1,3.8,13.1,3.8
		c2.7,0,4.6-0.7,4.6-2.9c0-5.7-18.2-3.6-18.2-16.8c0-8.5,6.5-13.5,16.2-13.5c4.1,0,8.1,0.7,11.9,2.2v11.3c-3.7-1.9-7.8-3-11.9-3.1
		c-2.5,0-4.1,0.7-4.1,2.6C374.5,51.4,392.8,48.8,392.8,63.1L392.8,63.1z"/>
	<path d="M319.6,121h150.3v96.8H319.6V121z"/>
	<path class="st2" d="M320.3,121.8h148.8v95.3H320.3V121.8z"/>
	<path class="st3" d="M422.2,129.4c-11,0-21.5,4.4-29.1,12.3l-0.4,0.4c-0.6,0.6-1.2,1.3-1.8,2l0,0h8.1c1.1,1.4,2.2,2.8,3.1,4.3
		h-14.3c-0.4,0.7-0.8,1.4-1.2,2.1l0,0.1c-0.4,0.7-0.7,1.4-1.1,2.1h19c0.6,1.4,1.2,2.8,1.7,4.3h-22.4c-0.5,1.4-0.9,2.8-1.2,4.3h24.8
		c0.2,0.8,0.3,1.6,0.4,2.4l0.5,0.2c0.8-0.9,1.6-1.6,2.6-2.2c0.1-0.1,0.2-0.1,0.3-0.2c2.1-1.7,4.9-2.4,7.6-1.7l1.8,0.4l1.1,0.4
		L421,165c-1.2-0.7-2.5-1.1-3.9-1.1c-3.3,0-5.6,3.2-5.6,7.7c0,3.1,1.5,5,4.1,5c1.3-0.1,2.6-0.4,3.7-1.1l-0.8,4.7l-1,0.2l-0.2,1
		c-1.3,0.4-2.6,0.6-3.9,0.6c-2.5,0.1-4.9-1.1-6.3-3.2c-0.3,1.3-0.6,2.5-1,3.8h-22.4c0.5,1.5,1.1,2.9,1.7,4.3h19
		c-0.7,1.5-1.5,2.9-2.3,4.3h-14.3c0.9,1.5,2,2.9,3.1,4.3h8.1c-1.3,1.5-2.6,3-4.1,4.3c16.5,15,42.1,13.7,57.1-2.8s13.7-42.1-2.8-57.1
		C441.9,133.1,432.2,129.4,422.2,129.4L422.2,129.4z"/>
	<path class="st3" d="M409.5,163.5l0.1-0.1L409.5,163.5z M410.3,162.4l0.1-0.1L410.3,162.4z M409.8,179l-0.3-0.3L409.8,179z"/>
	<path class="st4" d="M419.4,175.5c-1.1,0.6-2.4,1-3.7,1.1c-2.5,0-4.1-1.9-4.1-5c0-4.5,2.3-7.7,5.6-7.7c1.4,0,2.7,0.4,3.9,1.1
		l0.7-4.4l-1.1-0.4l-1.8-0.4c-3.1-0.7-6.4,0.3-8.5,2.6l-0.1,0.1c-0.3,0.3-0.6,0.7-0.8,1c-1.6,2.5-2.5,5.5-2.4,8.5
		c0,1.4,0.2,2.9,0.8,4.2c0.4,1,0.9,1.9,1.7,2.6l0.3,0.3c0.2,0.2,0.4,0.4,0.6,0.5c0.3,0.2,0.7,0.4,1,0.6l0.5,0.2
		c0.3,0.1,0.6,0.2,0.9,0.3l0.4,0.1c1,0.2,2,0.2,3,0c0.5,0,0.9-0.1,1.4-0.2l1-0.2L419.4,175.5L419.4,175.5z"/>
	<path class="st5" d="M405.9,170h-0.3c-0.7-0.1-1.5,0.1-2,0.6c-0.8,3.2-1.4,6.5-1.8,9.8h-4.4l2.7-16.7h4l-0.4,2.5
		c1.3-2,2.2-2.7,3.6-2.7c0.1,0,0.3,0,0.4,0.1h0.2c-0.1-0.8-0.3-1.6-0.4-2.4h-24.8c0.3-1.4,0.7-2.9,1.2-4.3h22.4
		c-0.5-1.5-1.1-2.9-1.7-4.3h-19c0.3-0.7,0.7-1.4,1.1-2.1v-0.1c0.4-0.7,0.8-1.4,1.2-2.1h14.3c-0.9-1.5-2-2.9-3.1-4.3h-8
		c0.6-0.7,1.1-1.4,1.8-2l0.4-0.4c0.6-0.6,1.3-1.3,1.9-1.9c-16.5-15-42.1-13.7-57,2.9c-15,16.5-13.7,42.1,2.9,57
		c16.5,15,42.1,13.7,57-2.9c0.4-0.5,0.8-0.9,1.2-1.4H391c-1.1-1.4-2.1-2.8-3.1-4.3h14.3c0.9-1.4,1.6-2.8,2.3-4.3h-19
		c-0.3-0.7-0.6-1.4-0.9-2.1l0,0c-0.3-0.7-0.6-1.4-0.8-2.2h22.4c0.4-1.2,0.8-2.5,1-3.8c-1.1-1.7-1.6-3.7-1.6-5.7
		C405.7,172.1,405.8,171.1,405.9,170L405.9,170z"/>
	<path d="M0,121.6h147.5V217H0V121.6z"/>
	<path class="st4" d="M145.4,123.8v91H2.2v-91H145.4z"/>
	<path class="st6" d="M139.4,209.5H17l-1.4-7.5l123.8-22.9V209.5z"/>
	<path d="M139.3,175.8l-7.6-41.2c-0.8-4.1-4.7-6.9-8.9-6.1c0,0,0,0,0,0L13.5,148.8c-4.1,0.8-6.9,4.7-6.1,8.9l7.6,41.2L139.3,175.8z"
		/>
	
		<linearGradient id="SVGID_1_" gradientUnits="userSpaceOnUse" x1="-661.0248" y1="202.5757" x2="-638.9848" y2="202.5757" gradientTransform="matrix(3.88 -0.73 0.73 3.88 2438.79 -1098.29)">
		<stop  offset="0" style="stop-color:#C95A2D"/>
		<stop  offset="0.15" style="stop-color:#C95A2D"/>
		<stop  offset="0.18" style="stop-color:#CB602E"/>
		<stop  offset="0.23" style="stop-color:#CF6F2F"/>
		<stop  offset="0.29" style="stop-color:#D68630"/>
		<stop  offset="0.35" style="stop-color:#E2A732"/>
		<stop  offset="0.42" style="stop-color:#F6D330"/>
		<stop  offset="0.44" style="stop-color:#F6D330"/>
		<stop  offset="0.49" style="stop-color:#EDC132"/>
		<stop  offset="0.61" style="stop-color:#DB9531"/>
		<stop  offset="0.75" style="stop-color:#C95A2D"/>
		<stop  offset="0.98" style="stop-color:#C95A2D"/>
		<stop  offset="1" style="stop-color:#C95A2D"/>
	</linearGradient>
	<path class="st7" d="M20.7,160.6c5.6-0.7,9.2,3,10.2,8.2c1,5.4-1,10-7,10.9l-6.3,1.2l-3.6-19.1L20.7,160.6z M20.8,176.9l2.5-0.5
		c3.8-0.7,4.3-4.2,3.8-7c-0.6-3.2-2.5-5.7-6.1-5.1l-2.4,0.4L20.8,176.9L20.8,176.9z"/>
	
		<linearGradient id="SVGID_2_" gradientUnits="userSpaceOnUse" x1="-661.0248" y1="202.5739" x2="-638.9848" y2="202.5739" gradientTransform="matrix(3.88 -0.73 0.73 3.88 2438.79 -1098.29)">
		<stop  offset="0" style="stop-color:#C95A2D"/>
		<stop  offset="0.15" style="stop-color:#C95A2D"/>
		<stop  offset="0.18" style="stop-color:#CB602E"/>
		<stop  offset="0.23" style="stop-color:#CF6F2F"/>
		<stop  offset="0.29" style="stop-color:#D68630"/>
		<stop  offset="0.35" style="stop-color:#E2A732"/>
		<stop  offset="0.42" style="stop-color:#F6D330"/>
		<stop  offset="0.44" style="stop-color:#F6D330"/>
		<stop  offset="0.49" style="stop-color:#EDC132"/>
		<stop  offset="0.61" style="stop-color:#DB9531"/>
		<stop  offset="0.75" style="stop-color:#C95A2D"/>
		<stop  offset="0.98" style="stop-color:#C95A2D"/>
		<stop  offset="1" style="stop-color:#C95A2D"/>
	</linearGradient>
	<path class="st8" d="M38.4,177l-3.8,0.7L31,158.7l3.8-0.7L38.4,177z"/>
	
		<linearGradient id="SVGID_3_" gradientUnits="userSpaceOnUse" x1="-661.0248" y1="202.6362" x2="-638.9848" y2="202.6362" gradientTransform="matrix(3.88 -0.73 0.73 3.88 2438.79 -1098.29)">
		<stop  offset="0" style="stop-color:#C95A2D"/>
		<stop  offset="0.15" style="stop-color:#C95A2D"/>
		<stop  offset="0.18" style="stop-color:#CB602E"/>
		<stop  offset="0.23" style="stop-color:#CF6F2F"/>
		<stop  offset="0.29" style="stop-color:#D68630"/>
		<stop  offset="0.35" style="stop-color:#E2A732"/>
		<stop  offset="0.42" style="stop-color:#F6D330"/>
		<stop  offset="0.44" style="stop-color:#F6D330"/>
		<stop  offset="0.49" style="stop-color:#EDC132"/>
		<stop  offset="0.61" style="stop-color:#DB9531"/>
		<stop  offset="0.75" style="stop-color:#C95A2D"/>
		<stop  offset="0.98" style="stop-color:#C95A2D"/>
		<stop  offset="1" style="stop-color:#C95A2D"/>
	</linearGradient>
	<path class="st9" d="M48.2,160.8c-2.4-0.8-3.8-1-5.1-0.8s-2.1,1-1.9,2c0.5,2.9,8.1,0.6,9.4,7.2c0.7,3.6-1.3,6.2-4.7,6.9
		c-2,0.4-4,0.1-5.8-0.8l-0.8-4.1c2.5,1.4,4,1.8,5.6,1.5c1.5-0.3,2.1-1.1,1.9-2.2c-0.6-3.1-8.1-0.5-9.4-7.3c-0.6-3.3,1.2-5.9,4.8-6.5
		c1.8-0.3,3.7-0.1,5.4,0.5L48.2,160.8L48.2,160.8z"/>
	
		<linearGradient id="SVGID_4_" gradientUnits="userSpaceOnUse" x1="-661.0248" y1="202.6209" x2="-638.9848" y2="202.6209" gradientTransform="matrix(3.88 -0.73 0.73 3.88 2438.79 -1098.29)">
		<stop  offset="0" style="stop-color:#C95A2D"/>
		<stop  offset="0.15" style="stop-color:#C95A2D"/>
		<stop  offset="0.18" style="stop-color:#CB602E"/>
		<stop  offset="0.23" style="stop-color:#CF6F2F"/>
		<stop  offset="0.29" style="stop-color:#D68630"/>
		<stop  offset="0.35" style="stop-color:#E2A732"/>
		<stop  offset="0.42" style="stop-color:#F6D330"/>
		<stop  offset="0.44" style="stop-color:#F6D330"/>
		<stop  offset="0.49" style="stop-color:#EDC132"/>
		<stop  offset="0.61" style="stop-color:#DB9531"/>
		<stop  offset="0.75" style="stop-color:#C95A2D"/>
		<stop  offset="0.98" style="stop-color:#C95A2D"/>
		<stop  offset="1" style="stop-color:#C95A2D"/>
	</linearGradient>
	<path class="st10" d="M66.9,170.1c-1.5,1.6-3.5,2.6-5.6,3c-5.9,1.1-9.7-3.1-10.7-8c-1-5.1,1.5-10.4,7.3-11.5c1.9-0.4,4-0.2,5.8,0.6
		l0.8,4.2c-1.7-0.9-3.7-1.3-5.6-1c-3,0.5-5,3.4-4.5,6.4c0,0.2,0.1,0.3,0.1,0.4c0.6,3.4,3.3,5.4,6.5,4.8c2-0.4,3.2-1.4,5.1-3.1
		L66.9,170.1z"/>
	
		<linearGradient id="SVGID_5_" gradientUnits="userSpaceOnUse" x1="-661.2648" y1="202.3211" x2="-639.2248" y2="202.3211" gradientTransform="matrix(3.88 -0.73 0.73 3.88 2440.24 -1097.54)">
		<stop  offset="0" style="stop-color:#C95A2D"/>
		<stop  offset="0.15" style="stop-color:#C95A2D"/>
		<stop  offset="0.18" style="stop-color:#CB602E"/>
		<stop  offset="0.23" style="stop-color:#CF6F2F"/>
		<stop  offset="0.29" style="stop-color:#D68630"/>
		<stop  offset="0.35" style="stop-color:#E2A732"/>
		<stop  offset="0.42" style="stop-color:#F6D330"/>
		<stop  offset="0.44" style="stop-color:#F6D330"/>
		<stop  offset="0.49" style="stop-color:#EDC132"/>
		<stop  offset="0.61" style="stop-color:#DB9531"/>
		<stop  offset="0.75" style="stop-color:#C95A2D"/>
		<stop  offset="0.98" style="stop-color:#C95A2D"/>
		<stop  offset="1" style="stop-color:#C95A2D"/>
	</linearGradient>
	<path class="st11" d="M95.4,166.2l-1.7,0.3L82.8,149l4.1-0.8l6,10.1l1.8-11.5l4.1-0.8L95.4,166.2z"/>
	
		<linearGradient id="SVGID_6_" gradientUnits="userSpaceOnUse" x1="-660.7048" y1="202.3036" x2="-638.6648" y2="202.3036" gradientTransform="matrix(3.88 -0.73 0.73 3.88 2437.3401 -1096.9601)">
		<stop  offset="0" style="stop-color:#C95A2D"/>
		<stop  offset="0.15" style="stop-color:#C95A2D"/>
		<stop  offset="0.18" style="stop-color:#CB602E"/>
		<stop  offset="0.23" style="stop-color:#CF6F2F"/>
		<stop  offset="0.29" style="stop-color:#D68630"/>
		<stop  offset="0.35" style="stop-color:#E2A732"/>
		<stop  offset="0.42" style="stop-color:#F6D330"/>
		<stop  offset="0.44" style="stop-color:#F6D330"/>
		<stop  offset="0.49" style="stop-color:#EDC132"/>
		<stop  offset="0.61" style="stop-color:#DB9531"/>
		<stop  offset="0.75" style="stop-color:#C95A2D"/>
		<stop  offset="0.98" style="stop-color:#C95A2D"/>
		<stop  offset="1" style="stop-color:#C95A2D"/>
	</linearGradient>
	<path class="st12" d="M114.5,162.6l-11.2,2.1l-3.6-19l11-2.1l0.7,3.5l-7.2,1.4l0.7,4l6.9-1.3l0.7,3.5l-6.9,1.3l0.9,4.6l7.4-1.4
		L114.5,162.6L114.5,162.6z"/>
	
		<linearGradient id="SVGID_7_" gradientUnits="userSpaceOnUse" x1="-659.8248" y1="202.3172" x2="-637.7848" y2="202.3172" gradientTransform="matrix(3.88 -0.73 0.73 3.88 2432.77 -1096.15)">
		<stop  offset="0" style="stop-color:#C95A2D"/>
		<stop  offset="0.15" style="stop-color:#C95A2D"/>
		<stop  offset="0.18" style="stop-color:#CB602E"/>
		<stop  offset="0.23" style="stop-color:#CF6F2F"/>
		<stop  offset="0.29" style="stop-color:#D68630"/>
		<stop  offset="0.35" style="stop-color:#E2A732"/>
		<stop  offset="0.42" style="stop-color:#F6D330"/>
		<stop  offset="0.44" style="stop-color:#F6D330"/>
		<stop  offset="0.49" style="stop-color:#EDC132"/>
		<stop  offset="0.61" style="stop-color:#DB9531"/>
		<stop  offset="0.75" style="stop-color:#C95A2D"/>
		<stop  offset="0.98" style="stop-color:#C95A2D"/>
		<stop  offset="1" style="stop-color:#C95A2D"/>
	</linearGradient>
	<path class="st13" d="M119.1,142.1c3.1-0.6,5.5,1.7,6,4.5c0.4,1.9-0.2,3.9-1.7,5.1c1.8,0.7,2.7,2.9,5.8,8.1l-4.2,0.8
		c-2.4-3.8-3.7-7.3-5.7-6.9l-1.1,0.2l1.5,7.7l-3.8,0.7l-3.6-19L119.1,142.1z M117.7,150.9l2-0.4c1.2-0.3,1.9-1.5,1.6-2.7
		c-0.3-1.1-1.4-1.8-2.5-1.6l-1.9,0.4L117.7,150.9z"/>
	
		<linearGradient id="SVGID_8_" gradientUnits="userSpaceOnUse" x1="-667.499" y1="203.5104" x2="-645.459" y2="203.5104" gradientTransform="matrix(3.92 -0.74 0.74 3.92 2495.02 -1122.52)">
		<stop  offset="0" style="stop-color:#C95A2D"/>
		<stop  offset="0.15" style="stop-color:#C95A2D"/>
		<stop  offset="0.18" style="stop-color:#CB602E"/>
		<stop  offset="0.23" style="stop-color:#CF6F2F"/>
		<stop  offset="0.29" style="stop-color:#D68630"/>
		<stop  offset="0.35" style="stop-color:#E2A732"/>
		<stop  offset="0.42" style="stop-color:#F6D330"/>
		<stop  offset="0.44" style="stop-color:#F6D330"/>
		<stop  offset="0.49" style="stop-color:#EDC132"/>
		<stop  offset="0.61" style="stop-color:#DB9531"/>
		<stop  offset="0.75" style="stop-color:#C95A2D"/>
		<stop  offset="0.98" style="stop-color:#C95A2D"/>
		<stop  offset="1" style="stop-color:#C95A2D"/>
	</linearGradient>
	<path class="st14" d="M74.3,150.7c6.2-1.2,10.9,2.5,11.9,7.7c1,5.1-2,10.3-8.3,11.5c-5.2,1.2-10.5-2-11.7-7.3
		c0-0.2-0.1-0.3-0.1-0.5C65.1,157,68.3,151.8,74.3,150.7z"/>
	<path class="st4" d="M127.8,142.3h0.2l0.8,1l0.6-0.1l-0.8-1c0.3,0,0.6-0.3,0.5-0.7c0,0,0-0.1,0-0.1c-0.1-0.6-0.5-0.7-1.2-0.6
		l-1,0.2l0.4,2.5l0.5-0.1L127.8,142.3z M127.8,141.9l-0.1-0.6l0.4-0.1c0.2,0,0.5-0.1,0.5,0.2s-0.1,0.3-0.3,0.4L127.8,141.9
		L127.8,141.9z M130.5,141.7c-0.2-1.2-1.3-2.1-2.6-1.9c0,0,0,0,0,0h-0.2c-1.3,0.1-2.1,1.3-2,2.5c0,0,0,0,0,0v0.2
		c0.2,1.3,1.3,2.1,2.6,1.9h0.2c1.3-0.1,2.2-1.3,2-2.5C130.5,141.8,130.5,141.7,130.5,141.7L130.5,141.7z M129.8,141.8
		c0.2,0.9-0.5,1.8-1.4,2s-1.8-0.5-2-1.4l0,0c-0.3-0.9,0.3-1.8,1.2-2.1c0.9-0.3,1.8,0.3,2.1,1.2C129.8,141.5,129.8,141.6,129.8,141.8
		z M90.7,205.6h-1.8l-4.8-6.6v6.6h-2.2v-10.2h2l4.6,6.3v-6.3h2.2V205.6z M97.8,205.7c-3.8,0-5.9-2.6-5.9-5.2s2-5.3,5.9-5.3
		s5.8,2.8,5.8,5.3C103.7,203.1,101.5,205.7,97.8,205.7z M97.8,197.3c-1.7,0.1-3.1,1.5-3,3.2s1.5,3.1,3.2,3c1.7-0.1,3-1.4,3-3.1
		c0.1-1.7-1.2-3.1-2.9-3.1C98.1,197.3,98,197.3,97.8,197.3z M108.8,205.7h-1l-4.2-10.4h2.4l2.3,5.9l2.2-5.9h2.3L108.8,205.7z
		 M122.5,195.3v5.8c0,3.4-2,4.6-4.4,4.6s-4.3-1.4-4.3-4.6v-5.8h2.2v5.9c-0.1,1.2,0.7,2.2,1.9,2.4c0.1,0,0.2,0,0.3,0
		c1.2,0,2.2-0.7,2.2-2.5v-5.7H122.5z M130.2,198c-0.8-0.5-1.8-0.8-2.8-0.9c-0.8,0-1.3,0.3-1.3,0.9c0,1.5,4.4,1.1,4.4,4.7
		c0.1,1.7-1.2,3.1-2.9,3.1c-0.2,0-0.3,0-0.5,0c-1.1,0-2.2-0.3-3.1-1v-2.2c0.8,0.8,1.9,1.3,3,1.3c0.8,0,1.3-0.4,1.3-1
		c0-1.7-4.4-1.1-4.4-4.7c0-1.8,1.3-3,3.3-3c1,0,2,0.3,2.9,0.8L130.2,198L130.2,198z M134.2,198.2h-0.5v-2.4h0.9c0.6,0,1,0.2,1,0.7
		c0,0.3-0.2,0.6-0.5,0.6c0,0-0.1,0-0.1,0l0.6,1H135l-0.6-1h-0.2L134.2,198.2L134.2,198.2z M134.6,196.8c0.2,0,0.4,0,0.4-0.3
		s-0.3-0.3-0.4-0.3h-0.4v0.6H134.6z M134.6,199.2c-1.2,0-2.1-1-2.1-2.2s1-2.1,2.2-2.1s2.1,1,2.1,2.2c0,1.1-0.9,2-2.1,2.1H134.6z
		 M134.6,195.3c-0.9-0.1-1.8,0.6-1.8,1.6c-0.1,0.9,0.6,1.8,1.6,1.8c0.9,0.1,1.8-0.6,1.8-1.6c0-0.1,0-0.1,0-0.2
		C136.2,196.1,135.5,195.3,134.6,195.3C134.6,195.3,134.6,195.3,134.6,195.3L134.6,195.3z M160.5,122h147.7v94.3H160.5V122z"/>
	<path d="M159.7,121.3h149.2v95.8H159.7V121.3z"/>
	<path class="st4" d="M307.4,122.8v92.8H161.2v-92.8H307.4z"/>
	<path class="st15" d="M167.3,189.6H301v19.7H167.3V189.6z"/>
	<path class="st16" d="M167.3,129H301v19.9H167.3V129z M245.4,153.4c3.7,0.2,5.3,0.3,10.2,2.8c0,0-2.9,4.6-2.8,4.6
		c-5.7-3.7-11.8-2.4-12.1,1c-0.2,3.7,10.3,6.4,10.4,12.1c0.1,8.3-7.2,11.2-14,11.2c-4.7,0-6.3-0.1-10.2-2.6c0-0.1,1.9-5.5,1.9-5.7
		c1.3,0.7,4.6,3.1,8,3.1c4.3,0,6-2.2,5.9-3.9c0-3.7-10.6-5.4-10.4-12.2C232.3,157.4,238.9,153,245.4,153.4L245.4,153.4z
		 M201.2,154.4c0.1,0,0.7,20.8,0.6,20.7s11.9-20.7,11.9-20.7h6.8c0.1,0-18.6,30.4-18.7,30.4h-8l-0.8-25.6c-0.1-1.6-1.4-3.9-5.4-4.2
		c0-0.2,0-0.5,0-0.5H201.2z M222.9,154.4h8.5l-9.5,30.4h-8.5L222.9,154.4z M278.6,159.2c1.3,0,2.4-1,2.4-2.3c0,0,0,0,0,0v-0.1
		c0-1.3-1-2.4-2.3-2.4h-0.1c-1.3,0-2.4,1-2.4,2.3c0,0,0,0,0,0v0.1c0,1.3,1,2.4,2.3,2.4C278.5,159.2,278.5,159.2,278.6,159.2
		L278.6,159.2z M278.6,158.7c-1,0-1.8-0.9-1.8-1.9c0,0,0,0,0,0v-0.1c0.1-1,0.9-1.8,1.9-1.7s1.8,0.9,1.7,1.9
		C280.4,157.9,279.6,158.7,278.6,158.7L278.6,158.7z M279.2,157c0.4-0.1,0.7-0.3,0.6-0.8s-0.3-0.8-1-0.8h-1.3v2.6h0.6v-1h0.4l0.6,1
		h0.6L279.2,157L279.2,157z M278.2,156.5v-0.6h0.5c0.3,0,0.7,0,0.6,0.3s-0.2,0.5-0.5,0.4H278.2z M296.4,207.7c1.4,0,2.5-1.2,2.5-2.5
		c0,0,0,0,0,0l0,0c0-1.3-1.1-2.4-2.4-2.4c0,0,0,0,0,0l0,0c-1.3,0-2.4,1.1-2.5,2.4C293.9,206.5,295,207.7,296.4,207.7L296.4,207.7z
		 M296.4,207c-1,0-1.8-0.8-1.8-1.7c0-0.1,0-0.1,0-0.2c0-1,0.9-1.8,1.9-1.8c0.9,0,1.6,0.7,1.7,1.6v0.2c0.1,1-0.6,1.8-1.5,2
		C296.6,207.1,296.5,207.1,296.4,207L296.4,207z M297.1,205.4c0.4,0,0.7-0.2,0.6-0.8s-0.3-0.8-1-0.8h-1.3v2.7h0.6v-1.1h0.4l0.6,1.2
		h0.6L297.1,205.4L297.1,205.4z M296.1,205v-0.8h0.5c0.3,0,0.7,0,0.6,0.4s-0.2,0.4-0.5,0.4L296.1,205z M274.1,154.4
		c0,0.2,2.6,30.4,2.6,30.4h-8.3l-0.5-6.7h-9.3c0,0-3.3,6.7-3.3,6.7h-7l17.5-30.4H274.1z M266.9,162.9c0,0,0.8,11,0.8,11h-6.8
		C260.8,173.9,266.9,163,266.9,162.9z"/>
	<path class="st17" d="M274.1,154.4c0,0.2,2.6,30.4,2.6,30.4h-8.3l-0.5-6.7h-9.3c0,0-3.3,6.7-3.3,6.7h-7l17.5-30.4H274.1z"/>
	<path class="st4" d="M266.9,162.9c0,0,0.8,11,0.8,11h-6.8C260.8,173.9,266.9,163,266.9,162.9z"/>
	<path d="M629.4,121.4H481v95.9h149.2v-95.9H629.4z"/>
	<path class="st4" d="M628.7,123v92.8H482.5V123H628.7z"/>
	<path class="st4" d="M589.6,175.4c-0.3-2.8-2.2-4.5-5.5-4.5c-3-0.1-5.4,2.3-5.5,5.3c0,0.2,0,0.3,0,0.5c0,3.6,2.2,5.8,5.8,5.8
		c2.7,0.2,5.1-1.8,5.3-4.6h-3.5c-0.1,1-0.7,1.9-1.9,1.9c-1.8,0-2.2-1.5-2.2-3c0-2.1,0.8-3.2,2-3.2c1-0.1,1.9,0.6,2,1.7
		c0,0.1,0,0.1,0,0.2L589.6,175.4L589.6,175.4z"/>
	<path class="st4" d="M598.8,182.5v-0.1c-0.3-0.2-0.5-0.6-0.4-1v-3.8c0-1.9-0.2-3.3-4-3.3c-3.2,0-4.4,1-4.4,2.7h3.1
		c0.1-0.7,0.7-0.8,1.1-0.8s1,0.1,1,0.6c0,1.5-5.7-0.2-5.7,3.5c0,1.7,1.3,2.4,2.9,2.4c1.1,0.1,2.2-0.3,3-1.1l0.2,0.9L598.8,182.5
		L598.8,182.5z M593.8,180.9c-0.6,0-1-0.3-1-0.7c0-1,1.4-0.8,2.4-1.3C595.3,180,594.9,180.9,593.8,180.9z M599.3,182.5h3.2v-2.8
		c0-1.7,0.7-2.3,2-2.3c0.2,0,0.4,0,0.7,0.1v-3.2h-0.4c-1.2-0.1-2.2,0.7-2.5,1.9l0,0v-1.6h-2.9L599.3,182.5L599.3,182.5z"/>
	<path class="st4" d="M609.5,180.4c-1,0-1.2-1-1.2-1.8s0.3-1.9,1.3-1.9s1.4,1,1.4,1.9S610.6,180.4,609.5,180.4z M614,182.5v-11h-3.2
		v3.8c-0.6-0.7-1.5-1.1-2.4-1c-1.9,0-3.4,1.7-3.4,4.4c0,2.3,1.2,4.1,3.6,4.1c1,0,1.9-0.5,2.5-1.3v1.1L614,182.5L614,182.5z
		 M614.4,179.8c0.2,2.2,2.2,2.7,4,2.7c2.9,0,4.3-1.1,4.3-2.8c0-3-5.1-2.2-5.1-3.4c0-0.4,0.3-0.6,0.9-0.6c0.2,0,0.5,0.1,0.7,0.2
		c0.2,0.1,0.3,0.4,0.3,0.6h2.9c-0.2-2.1-2.2-2.5-4-2.5s-3.8,0.6-3.8,2.7c0,3.1,4.9,2.1,4.9,3.4c0,0.6-0.5,0.7-1,0.7
		c-0.3,0-0.6-0.1-0.8-0.2c-0.2-0.2-0.4-0.4-0.3-0.7L614.4,179.8L614.4,179.8z"/>
	<path class="st18" d="M515,164.2h-2.9v-6.4l-3.1,6.4l-1.7,0.1l-3.6-6.4v6.3H499l-1.7-2.6H493l-1.1,2.5h-3.1l4.6-10.4h3.5l4.1,7.8
		v-7.8h4l3.2,5.7l2.5-5.7h4.3V164.2z"/>
	<path class="st4" d="M496,159.2h-2.3l1.1-2.6L496,159.2z"/>
	<path class="st18" d="M536.5,155.6c0.4,1.3-0.1,2.7-1.2,3.6c1.4,0.9,1.1,5,1.1,5h-2.9c0,0,0.2-3.2-0.5-3.5
		c-1.1-0.1-2.3-0.2-3.4-0.1v3.7h-2.9v-10.5h7.3C535.1,153.9,536.1,154.6,536.5,155.6L536.5,155.6z"/>
	<path class="st4" d="M533.5,157.1c0,0.3-0.3,0.7-1,0.8h-3v-1.7c0,0,1.1,0,2.6,0C533.3,156.1,533.5,156.8,533.5,157.1L533.5,157.1z"
		/>
	<path class="st18" d="M524.9,153.7v2.6h-5v1.3h5.1v2.6h-5.1l-0.1,1.3h5.2v2.6h-8.3v-10.4L524.9,153.7z M558.7,177.2
		c-0.9-0.7-1.2-1.9-1-3c0.1-0.9,0.7-1.7,1.5-2.2c0.6-0.3,1.2-0.4,1.8-0.4h4.8v2.5h-4.6c-0.3,0-0.6,0.2-0.6,0.5c0,0,0,0,0,0.1
		c0,0.6,0.5,0.6,0.9,0.7c0.9,0,2.8,0,3.5,0.6c0.8,0.7,1.2,1.9,1,3c-0.1,0.9-0.7,1.7-1.5,2.2c-0.6,0.3-1.2,0.4-1.8,0.4h-4.9V179h4.6
		c0.4,0,0.7-0.2,0.7-0.6c0,0,0,0,0,0c0-0.6-0.5-0.6-0.9-0.7h-1.8c-0.4,0-0.8-0.1-1.2-0.3C559.1,177.4,558.9,177.3,558.7,177.2
		L558.7,177.2z M568.2,177.2c-0.8-0.8-1.2-1.9-1-3c0.1-0.9,0.7-1.7,1.5-2.2c0.6-0.3,1.2-0.4,1.8-0.4h4.9v2.5h-4.7
		c-0.6,0-0.7,0.4-0.7,0.6c0,0.6,0.5,0.6,0.9,0.7c0.9,0,2.8,0,3.5,0.6c0.8,0.7,1.2,1.9,1,3c-0.1,0.9-0.7,1.8-1.5,2.2
		c-0.6,0.3-1.2,0.4-1.8,0.4h-4.9v-2.5h4.6c0.7,0,0.8-0.3,0.8-0.6c0-0.6-0.5-0.6-0.9-0.6H570c-0.4,0-0.8-0.1-1.2-0.3
		C568.6,177.5,568.4,177.4,568.2,177.2L568.2,177.2z M556.5,174.1h-5v1.4h5.1v2.6h-5v1.2h5v2.4h-8v-10h8L556.5,174.1z"/>
	<path class="st18" d="M575.7,170h-6.8c-2.6,0.1-2.1,1.7-2.2,0c0-0.1-6.9,0-6.9,0c-2.8,0-2.2,1.6-2.3,0c0-0.1-10.7,0-10.7,0v0.9
		c-0.8-0.6-1.8-0.9-2.9-0.9h-8.7v0.9c-0.5-0.4-1.1-0.8-1.8-0.9h-10.6l-1.7,1.9l-1.6-1.9h-12.6v13.2h12.6l1.6-1.9l1.7,1.9h7.9V180
		c0,0,4,0.2,4.5-1v1.4v2.8h5.8v-3.4c0.6,0,1.4-0.1,1.4,0.5s-0.1-1.5,0,2.8h21.5c0.3,0,0.5,0,0.8-0.1c0.5-0.2,1-0.6,1.3-1.1
		c0,0.5,0,1.2,0,1.2h7.7c0.4,0,0.8-0.1,1.1-0.3c0.9-1.5,0.8-0.9,0.7,0.2v26.5h-87.2v-43.9h4.4l1.1-2.5h2.3l1.3,2.5h7.7v-2l1.2,2h3.6
		l1-1.9v1.9h19.9v-3.8c0,0,1.8-0.4,1.5,0.7v3h9.5v-1.1c0.6,0.7,1.5,1.1,2.4,1.1c3.2,0,3.8-0.1,6,0l1.4-2.4h2.6l1.2,2.4l7.6-0.1
		l0.1-2.6l1.7,2.7h6.2V152H565v2.4l-1.5-2.4h-6.8v2.3l-1.2-2.3h-9.9c-3.3,0-3.8,1.7-3.8,1.7V152h-5c-0.1,0.2-0.2,0.5-0.1,0.8
		c-0.5-0.6-1.2-0.9-2-0.8h-24.9c-0.6,1.1-1.2,2.3-1.6,3.6c-0.6-1.2-1.1-2.3-1.6-3.6h-7.1l0,3.1c-0.4-0.8-1.6-3.1-1.6-3.1h-5.5
		l-3.8,8.3V129h87.2L575.7,170L575.7,170z"/>
	<path class="st18" d="M537.9,153.7h2.6v10.4h-2.6V153.7z M549.3,156.1c0,0-4-0.4-4.4,1.2c-0.5,1.2-0.4,2.6,0.3,3.7
		c0.6,0.5,1.4,0.7,2.2,0.5l0.6-0.9l3.5-6.9h3.1l3.8,8v-8h4c0.1,0,4,6.2,4,6.2v-6.2h2.8v10.4h-3.3l-4.6-6.6v6.6h-5l-1.4-2.4h-4.3
		l-1.2,2.4c0,0-5.2,0.6-6.3-1.1c-1.4-1.5-1.5-3.9-1.1-5.9c0.2-1.2,0.9-2.2,1.9-2.8c1.4-0.8,5.4-0.5,5.4-0.5L549.3,156.1L549.3,156.1
		z"/>
	<path class="st4" d="M553.8,159.1h-2.3l1.2-2.6L553.8,159.1z"/>
	<path class="st18" d="M521.2,174.3l2.3-2.7h9.5c1.1,0.4,2,1.3,2.3,2.4c0.3,1.4-0.1,2.9-1.2,3.8c-0.3,0.3-0.6,0.4-1,0.4h-4v3.4h-5.5
		l-2.5-2.7c-0.7,0.7-2.5,2.7-2.5,2.7h-9.8v-10c8.6,0.1,9.9,0.1,9.9,0.1L521.2,174.3z"/>
	<path class="st4" d="M511.4,174v1.4h5v2.6h-5v1.3h5.1l2.4-2.7l-2.4-2.8L511.4,174z M526,179.4l-2.6-2.7l2.6-2.6V179.4z
		 M533.1,174.9c0,0.3-0.3,0.7-1,0.8H529v-1.6h2.7C532.8,174,533,174.7,533.1,174.9L533.1,174.9z"/>
	<path class="st18" d="M544.3,171.6h-7.1v10.1l2.8-0.1v-3.4h3.1c0.9,0.3,0.6,3.4,0.6,3.4h2.9c0,0,0.3-4.7-1.1-4.7
		c1.1-0.8,1.5-2.2,1.1-3.4C546.3,172.4,545.4,171.7,544.3,171.6L544.3,171.6z"/>
	<path class="st4" d="M542.5,173.9H540v1.7h2.9c0.7,0,1-0.5,1-0.8S543.7,173.8,542.5,173.9L542.5,173.9z"/>
	<path class="st18" d="M579.9,209.9c1.4,0,2.5-1.1,2.5-2.5c0-1.4-1.1-2.5-2.5-2.5c-1.4,0-2.5,1.1-2.5,2.5c0,0,0,0,0,0
		C577.4,208.8,578.5,209.9,579.9,209.9z M579.9,209.3c-1,0-1.9-0.8-2-1.8c0-1,0.8-1.9,1.8-2s1.9,0.8,2,1.8c0,0,0,0.1,0,0.1
		c0.1,1-0.7,1.8-1.7,1.9C580,209.3,579.9,209.3,579.9,209.3z M580.4,207.6c0.5,0,0.7-0.2,0.7-0.7s-0.3-0.8-1-0.8h-1.3v2.7h0.5v-1.1
		h0.5l0.6,1.1h0.7L580.4,207.6L580.4,207.6z M579.4,207.2v-0.7h0.6c0.3,0,0.6,0,0.6,0.3s-0.2,0.4-0.5,0.4H579.4z"/>
	<path class="st3" d="M457.2,192.3c-0.1-0.7,0.4-1.4,1.2-1.4c0,0,0,0,0,0c0.7-0.1,1.4,0.4,1.4,1.2c0,0.1,0,0.2,0,0.3
		c-0.1,0.7-0.7,1.3-1.4,1.2C457.7,193.5,457.2,193,457.2,192.3L457.2,192.3z M458.5,193.3c0.6,0,1-0.4,1-1s-0.4-1-1-1l0,0
		c-0.6,0-1,0.4-1,1l0,0C457.5,192.9,457.9,193.3,458.5,193.3z M458.3,192.9h-0.3v-1.1h0.5c0.1,0,0.2,0,0.3,0.1
		c0.1,0.1,0.2,0.2,0.1,0.3c0,0.1-0.1,0.3-0.2,0.3l0.2,0.5h-0.3l-0.2-0.5h-0.2L458.3,192.9L458.3,192.9z M458.3,192.3h0.1
		c0.1,0,0.1,0,0.2,0c0,0,0.1-0.1,0.1-0.1c0,0,0-0.1-0.1-0.1c-0.1,0-0.1,0-0.2,0h-0.1L458.3,192.3L458.3,192.3z"/>
	<path class="st4" d="M457.2,179.2c-0.1-0.7,0.5-1.4,1.2-1.4c0.7-0.1,1.4,0.5,1.4,1.2c0,0.1,0,0.2,0,0.2l0,0
		c-0.1,0.7-0.7,1.3-1.4,1.2C457.7,180.3,457.2,179.8,457.2,179.2z M458.5,180.2c0.6,0,1-0.4,1-1s-0.4-1-1-1s-1,0.4-1,1
		S457.9,180.2,458.5,180.2z M458.3,179.8h-0.3v-1.2h0.5c0.1,0,0.2,0,0.3,0.1c0.1,0.1,0.2,0.2,0.1,0.3c0,0.1-0.1,0.3-0.2,0.3l0.2,0.5
		h-0.3l-0.2-0.4h-0.2L458.3,179.8L458.3,179.8z M458.3,179.1h0.1h0.2c0,0,0.1-0.1,0.1-0.1c0,0,0-0.1-0.1-0.1c-0.1,0-0.1,0-0.2,0
		h-0.1L458.3,179.1L458.3,179.1z"/>
	<path class="st19" d="M381.3,169.2h1.6l0.2-1.4h-1.6L381.3,169.2z M375.8,177.1c0-0.5,0-1,0.1-1.5l2.2-13h-0.9l-2,11.9v0.6
		c0,0.9-0.1,1.8-0.5,2.6c0,0.2-0.1,0.4-0.1,0.6c0,2.4,1.3,3.7,3.3,3.7c1.1,0,2.2-0.2,3.3-0.6l0.2-1c-0.7,0.2-1.5,0.3-2.2,0.3
		C377,180.8,375.8,179.5,375.8,177.1L375.8,177.1z M391.3,167.1c-1.1,0-2,0.7-2.4,1.7c0.4-0.3,0.8-0.4,1.3-0.4c1-0.1,1.9,0.7,2,1.7
		c0,0,0,0,0,0h1.1v-0.9c0.1-1.1-0.6-2-1.7-2.1C391.5,167.1,391.4,167.1,391.3,167.1L391.3,167.1z M383.8,173.3
		c0-2.2,0.5-4.4,1.7-6.3c-1.8,2.1-2.8,4.8-2.7,7.6c0,4.9,2.8,7.5,7.5,7.5c1.5,0,3-0.2,4.5-0.7l0.2-1.1c-1.2,0.3-2.5,0.5-3.7,0.5
		C386.4,180.7,383.8,178.2,383.8,173.3L383.8,173.3z"/>
	<path class="st19" d="M388.1,174c0,0.3,0,0.5,0.1,0.8h7.7l0.3-1.3h-8L388.1,174z M338,164.7l-1,6l0.3,11h3l0.5-1.3h-2.3L338,164.7z
		 M345,161.2h-0.8l-3,9v2.4L345,161.2z M347,164.6l-1.7,4.6l-2,12.4h4.4l0.2-1.3h-3.5L347,164.6z M334.5,161.2h-1l-3.4,20.5h4.3
		l0.2-1.3h-3.2L334.5,161.2z M360.4,168.7c0-1.1-0.8-1.5-2.8-1.5c-1.2,0-2.5,0.2-3.6,0.5l-1,0.3l0.5-2.7c-0.3,0.1-0.6,0.2-1,0.3
		l-0.6,3.8l0.9-0.2c1.2-0.3,2.4-0.5,3.6-0.5c1.9,0,2.8,0.3,2.9,1.2c0.3,0,0.7,0,1,0.1C360.4,169.5,360.5,169.1,360.4,168.7
		L360.4,168.7z M355.1,174.6c0.7-0.3,1.5-0.4,2.4-0.4c0.3,0,0.6,0,0.9,0.1c0,0.9-0.2,1.8-0.5,2.6c1.2-0.9,2-2.3,1.9-3.8
		c-0.3-0.1-0.7-0.1-1-0.1C356.7,172.9,355.5,173.5,355.1,174.6L355.1,174.6z M359.4,178.7c-1.1,1.4-2.8,2.1-4.6,2
		c-2.4,0-4-1.9-4-4.6c0-1.3,0.3-2.5,1-3.6c-0.9,0.7-1.5,1.6-1.8,2.7c-0.2,0.7-0.3,1.4-0.3,2.2c0,2.7,1.8,4.6,3.9,4.6
		c2.3,0,3.6-0.7,4.6-2l-0.1,1.7h3.8l0.2-1.3h-2.7L359.4,178.7L359.4,178.7z M413,166.2c0.8-0.7,1.9-1,3-1.1c1.4,0,2.7,0.4,3.9,1.1
		l0.3-1.7c-0.9-0.4-2-0.7-3-0.7C415.5,163.9,413.9,164.8,413,166.2z M399.9,165h-0.9l-2.7,16.7h4.4l0.2-1.3h-3.5L399.9,165z
		 M451.3,178.8c-1,1.2-2.5,1.9-4,1.9c-3.2,0-5.3-2.8-5.3-6.9c-0.1-2.9,0.9-5.7,2.7-7.9c-1,0.7-1.8,1.6-2.4,2.7l0,0H442
		c-1.2,0-1.8,0.5-2.4,2.8c0.2,1.3,0.6,2.6,1.2,3.8c0,4.2,2.2,6.9,5.4,6.9c1.6,0,3-0.7,4-1.9l-0.2,1.6h4.1l0.2-1.3h-3.2L451.3,178.8
		L451.3,178.8z M454.1,161.2H453l-0.6,3.6c0.3,0.3,0.6,0.6,0.9,1L454.1,161.2z"/>
	<path class="st19" d="M450,167.6c-1.1,0.1-2.1,0.7-2.5,1.7c0.4-0.3,0.9-0.4,1.4-0.4c1.5,0,2.3,1.1,2.3,3.3c0,1.3-0.3,2.7-0.9,3.9
		c1.2-0.9,2-2.7,2-5.1C452.3,168.7,451.5,167.6,450,167.6z M436,165h-0.9l-2.7,16.7h4.4l0.2-1.3h-3.5L436,165z M424.3,174.6
		c0.7-0.3,1.5-0.4,2.3-0.4c0.3,0,0.4,0,0.9,0.1c0,0.9-0.2,1.8-0.5,2.6c1.3-0.9,2-2.3,1.9-3.9c-0.3-0.1-0.7-0.1-1-0.1
		C425.9,172.9,424.6,173.5,424.3,174.6L424.3,174.6z M428.5,178.7c-1.1,1.4-2.8,2.1-4.6,2c-2.4,0-4-1.9-4-4.6c0-1.3,0.3-2.5,1-3.6
		c-1,0.8-1.8,1.9-2.1,3.2l0.6-0.2l-0.6,3.4c0.4,1.8,2,3,3.8,3.1c2.3,0,3.6-0.7,4.6-2l-0.1,1.7h3.8l0.1-1.3h-2.7L428.5,178.7
		L428.5,178.7z M429.6,168.7c0-1.1-0.8-1.5-2.8-1.5c-1.2,0-2.5,0.2-3.6,0.5l-1,0.3l0.4-2.7c-0.3,0.1-0.6,0.2-1,0.3l-0.6,3.8l0.9-0.2
		c1.2-0.3,2.4-0.5,3.6-0.5c1.9,0,2.8,0.3,2.9,1.2c0.3,0,0.7,0,1,0.1C429.5,169.5,429.6,169.1,429.6,168.7L429.6,168.7z M364.5,170.3
		c0,2,1,3.5,3.3,4.6c1.8,0.8,2.1,1,2.1,1.8v0.2c0.7-0.1,1.2-0.7,1.2-1.3c0-0.8-0.3-1-2-1.8c-2.3-1.1-3.3-2.5-3.3-4.6
		c0-1,0.2-2.1,0.7-3c-0.9,0.8-1.5,1.8-1.7,3C364.6,169.5,364.5,170,364.5,170.3L364.5,170.3z M370.1,168.6L370.1,168.6
		c0.3-0.1,0.6-0.1,0.9-0.1c1.1,0,2.2,0.1,3.3,0.2l0.2-1.4c-0.8-0.1-1.5-0.1-2.3-0.1C370.8,167.2,370.1,167.7,370.1,168.6
		L370.1,168.6z M366,180.5c-0.4,0-0.8-0.1-1.1-0.1l-1-0.2l0.4-2.3c-0.3-0.1-0.7-0.1-1-0.2l-0.4,2.8h-0.1l-0.1,1h0.1l0.8,0.2
		c0.4,0.1,0.8,0.1,1.1,0.2c1,0.1,1.9,0.1,2.5,0.1c3.3,0,5.2-0.9,6.2-2.6c-1.5,1-3.2,1.4-5,1.3C367.9,180.7,367.1,180.6,366,180.5z"
		/>
	<path class="st5" d="M405.9,168.4c-0.1,0-0.3,0-0.4,0H405.9z M405.1,168.5l-0.3,0.1C404.9,168.6,405,168.6,405.1,168.5L405.1,168.5
		z M403.8,170.1l-0.2,0.5C403.6,170.5,403.7,170.3,403.8,170.1L403.8,170.1z M404.3,169.2c-0.1,0.1-0.2,0.2-0.2,0.4L404.3,169.2z"/>
	<path class="st19" d="M413.5,182.1c1.3,0,2.6-0.2,3.9-0.6l0.2-1c-0.9,0.2-1.9,0.3-2.9,0.4c-3.1,0.1-5.9-1.7-6.9-4.6
		c-0.5-1.3-0.8-2.8-0.8-4.2c0-2,0.3-4.1,1.1-5.9c0.7-1.8,1.8-3.3,3.2-4.5c-0.1,0-0.2,0.1-0.3,0.2c-1,0.6-1.8,1.3-2.6,2.2l-0.5-0.2
		l0,0c-0.8,1.5-1.4,3.1-1.7,4.8h-0.3c-0.1,0-0.3,0-0.4,0l0,0c-0.1,0-0.2,0-0.3,0.1l-0.3,0.1c-0.1,0.1-0.2,0.1-0.3,0.2l0,0
		c-0.1,0.1-0.2,0.2-0.2,0.3l0,0c-0.1,0.1-0.2,0.2-0.2,0.4v0.1c-0.1,0.1-0.2,0.3-0.2,0.4v0.1l-0.2,0.5c0.5-0.5,1.3-0.7,2-0.6h0.3
		c-0.1,1.1-0.2,2.1-0.2,3.2c-0.1,2,0.5,4,1.6,5.7C408.7,180.9,411.1,182.1,413.5,182.1L413.5,182.1z"/>
	<path class="st4" d="M407.2,163.6c-1.5,0-2.3,0.7-3.6,2.7l0.4-2.5h-4l-2.7,16.7h4.4c0.4-3.3,1-6.5,1.8-9.8c0.1-0.2,0.1-0.3,0.2-0.5
		v-0.1c0.1-0.1,0.1-0.3,0.2-0.4l0,0c0.1-0.1,0.2-0.3,0.2-0.4l0,0c0.1-0.1,0.1-0.2,0.2-0.3l0,0c0.1-0.1,0.2-0.1,0.3-0.2
		c0.1-0.1,0.2-0.1,0.3-0.1l0.3-0.1l0,0c0.2,0,0.5,0,0.7,0c0.3-1.7,0.9-3.3,1.7-4.9h-0.2c-0.1,0-0.3-0.1-0.4-0.1L407.2,163.6z
		 M380.3,175.4c0-0.2,0-0.5,0.1-0.7l1.1-7h2.2l0.6-4.1h-2.2l0.5-2.5h-4.4l-2.4,14.3c-0.1,0.5-0.1,1-0.1,1.5c0,2.4,1.2,3.7,3.5,3.7
		c0.7,0,1.5-0.1,2.2-0.3c0.3-0.1,0.6-0.1,1-0.2l0.6-3.7c-0.4,0.1-0.8,0.2-1.2,0.2C380.8,176.7,380.3,176.3,380.3,175.4z
		 M372.1,170.4c-1.8-0.8-2-1-2-1.8l0,0c0-0.9,0.7-1.4,2.1-1.4c1.1,0,2.1,0.1,3.1,0.3l0.6-3.9c-1.3-0.2-2.6-0.3-3.9-0.3
		c-4.9,0-6.6,2.6-6.6,5.6c0,2.1,1,3.6,3.3,4.6c1.8,0.8,2,1.1,2,1.8c0,0.7-0.5,1.3-1.2,1.3c-0.4,0.1-0.9,0.2-1.3,0.2
		c-1.3,0-2.7-0.2-3.9-0.6l-0.6,3.9l1,0.2c1.2,0.2,2.4,0.3,3.6,0.3c4.6,0,6.8-1.8,6.8-5.6C375.4,173.1,374.1,171.1,372.1,170.4
		L372.1,170.4z M458.6,159.9h-4.3l-1,5.9c-0.9-1.4-2.5-2.3-4.2-2.3c-3.9,0-7.1,4.7-7.1,10.2c0,4.2,2.1,6.9,5.3,6.9
		c1.6,0,3.1-0.7,4.1-1.9l-0.2,1.6h4.2L458.6,159.9L458.6,159.9z M448.8,176.4c-1.5,0-2.3-1.1-2.3-3.3c0-3.3,1.4-5.6,3.4-5.6
		c1.5,0,2.3,1.2,2.3,3.3C452.3,174.1,450.8,176.4,448.8,176.4L448.8,176.4z M396.5,175.8c-1.4,0.7-3,1-4.5,1c-2.6,0-3.9-1-3.9-2.9
		v-0.5h8.7c0.3-1.3,0.5-2.7,0.5-4.1c0-3.7-2.3-6.1-5.9-6.1c-2.5,0-4.8,1.4-6,3.6c-1.1,1.9-1.7,4.1-1.7,6.3c0,4.9,2.6,7.5,7.5,7.5
		c1.3,0,2.5-0.2,3.7-0.5c0.3-0.1,0.5-0.1,0.8-0.2L396.5,175.8L396.5,175.8z M393.3,170.1h-4.8c0.4-1.9,1.4-3,2.8-3
		c1.1-0.1,2,0.7,2.1,1.8c0,0.1,0,0.2,0,0.4L393.3,170.1L393.3,170.1z M352.3,159.9h-6.8l-4.3,12.7l-0.2-12.7h-6.3l-3.4,20.5h4.1
		l2.6-15.7l0.4,15.7h3l5.5-15.7l-2.5,15.8h4.4L352.3,159.9z M363.3,177.4c0,0,1-6.6,1.2-7.6c0.1-0.5,0.1-1.1,0.1-1.6
		c0-3.2-2-4.9-5.8-4.9c-1.8,0-3.6,0.3-5.2,0.9L353,168l1-0.3c1.2-0.3,2.4-0.5,3.6-0.5c2,0,2.8,0.4,2.8,1.5c0,0.4-0.1,0.7-0.2,1.1
		c-0.6-0.1-1.2-0.1-1.8-0.1c-3.2,0-5.5,1-6.7,2.9c-0.7,1.1-1,2.3-1,3.6c0,2.7,1.6,4.6,4,4.6c1.8,0.1,3.5-0.6,4.6-2l-0.1,1.7h3.6
		L363.3,177.4L363.3,177.4z M356.6,177.1c-0.8,0-1.6-0.6-1.6-1.5c0-0.1,0-0.1,0-0.2c0-1.7,1.3-2.5,3.7-2.5c0.3,0,0.7,0,1,0.1
		C359.7,175.4,358.4,177.1,356.6,177.1L356.6,177.1z M433.4,171.5c0.2-1.1,0.3-2.2,0.4-3.3c0-3.2-2-4.9-5.8-4.9
		c-1.8,0-3.6,0.3-5.2,0.9l-0.6,3.8l1-0.3c1.2-0.3,2.4-0.5,3.6-0.5c2.1,0,2.8,0.4,2.8,1.5c0,0.4-0.1,0.7-0.2,1.1
		c-0.6-0.1-1.2-0.1-1.8-0.1c-3.2,0-5.5,1-6.7,2.9c-0.7,1.1-1,2.3-1,3.6c0,2.7,1.6,4.6,4,4.6c1.8,0.1,3.5-0.6,4.6-2l-0.1,1.7h3.6
		l0.4-2.9L433.4,171.5L433.4,171.5z M425.7,177.1c-0.8,0-1.5-0.6-1.6-1.5c0-0.1,0-0.1,0-0.2c0-1.7,1.2-2.5,3.7-2.5
		c0.3,0,0.7,0,1,0.1C428.8,175.4,427.5,177.1,425.7,177.1L425.7,177.1z M442,168.4h0.3c0.3-1.7,0.9-3.3,1.7-4.8h-0.1
		c-0.1,0-0.3,0-0.4-0.1c-1.5,0-2.3,0.8-3.6,2.7l0.4-2.5h-4l-2.7,16.7h4.4C439.5,170.2,439.9,168.4,442,168.4L442,168.4z"/>
</g>
</svg>
